<svg width="25" height="25" viewBox="0 0 25 25" fill="none" xmlns="http://www.w3.org/2000/svg">
<path d="M5.27734 3.58691H17.7218V17.5525C17.7218 18.3828 16.7684 18.8515 16.111 18.3443L15.169 17.6177C14.8342 17.3594 14.3732 17.3396 14.0175 17.5683L12.5811 18.4917C11.9223 18.9152 11.0769 18.9152 10.4181 18.4917L8.98165 17.5683C8.62596 17.3396 8.1649 17.3594 7.83009 17.6177L6.88815 18.3443C6.23072 18.8515 5.27734 18.3828 5.27734 17.5525V3.58691Z" stroke="black" stroke-width="1.5"/>
<path d="M8.83203 8.92003H11.4987" stroke="black" stroke-width="1.5" stroke-linecap="round" stroke-linejoin="round"/>
<path d="M3.5 3.58702H19.5" stroke="black" stroke-width="1.5" stroke-linecap="round" stroke-linejoin="round"/>
<path d="M8.83203 12.4757H11.4987" stroke="black" stroke-width="1.5" stroke-linecap="round" stroke-linejoin="round"/>
<path d="M14.168 8.92003H14.6124" stroke="black" stroke-width="1.5" stroke-linecap="round" stroke-linejoin="round"/>
<path d="M14.168 12.4757H14.6124" stroke="black" stroke-width="1.5" stroke-linecap="round" stroke-linejoin="round"/>
</svg>
