<svg width="25" height="25" viewBox="0 0 25 25" fill="none" xmlns="http://www.w3.org/2000/svg">
<path d="M3.5 11.1116C3.5 9.88743 4.06058 8.73065 5.02142 7.97209L9.02142 4.81419C10.4747 3.6669 12.5253 3.6669 13.9786 4.81419L17.9786 7.97209C18.9394 8.73065 19.5 9.88743 19.5 11.1116V15.6995C19.5 17.9087 17.7091 19.6995 15.5 19.6995H15.0263C14.474 19.6995 14.0263 19.2518 14.0263 18.6995V16.6469C14.0263 15.5423 13.1309 14.6469 12.0263 14.6469H10.9737C9.86911 14.6469 8.97368 15.5423 8.97368 16.6469V18.6995C8.97368 19.2518 8.52597 19.6995 7.97368 19.6995H7.5C5.29086 19.6995 3.5 17.9087 3.5 15.6995L3.5 11.1116Z" stroke="black" stroke-width="1.5"/>
</svg>
