<svg width="25" height="24" viewBox="0 0 25 24" fill="none" xmlns="http://www.w3.org/2000/svg">
<path d="M3.69958 7.60033L3.0122 7.30032L3.69958 7.60033ZM8.10244 18.8013L7.80263 19.4888L8.10244 18.8013ZM19.3011 14.398L18.6137 14.0982L19.3011 14.398ZM19.3001 7.59965L18.6128 7.89972L19.3001 7.59965ZM8.38651 18.9191L8.66112 18.2212L8.38651 18.9191ZM19.4191 7.88651L20.1171 7.6119L19.4191 7.88651ZM14.6135 18.9191L14.8881 19.617L14.6135 18.9191ZM15.2022 2.51329C15.0985 2.46799 14.9938 2.42453 14.8881 2.38296L14.3389 3.77879C14.4273 3.81358 14.515 3.84996 14.6018 3.88788L15.2022 2.51329ZM20.1171 7.6119C20.0757 7.50684 20.0325 7.40272 19.9875 7.29959L18.6128 7.89972C18.6505 7.98605 18.6866 8.07319 18.7212 8.16112L20.1171 7.6119ZM19.9886 14.6979C20.0332 14.5956 20.076 14.4923 20.117 14.3881L18.7212 13.8389C18.6869 13.9261 18.6511 14.0125 18.6137 14.0982L19.9886 14.6979ZM14.8881 19.617C14.9936 19.5755 15.0981 19.5322 15.2016 19.4869L14.6013 18.1123C14.5146 18.1502 14.4272 18.1865 14.3389 18.2212L14.8881 19.617ZM7.80263 19.4888C7.90477 19.5334 8.00787 19.5761 8.1119 19.617L8.66112 18.2212C8.57406 18.187 8.48776 18.1512 8.40226 18.1139L7.80263 19.4888ZM2.88295 14.3881C2.92386 14.492 2.96658 14.5951 3.01109 14.6971L4.38604 14.0975C4.34878 14.0121 4.31302 13.9259 4.27879 13.8389L2.88295 14.3881ZM3.0122 7.30032C2.96729 7.40321 2.9242 7.50708 2.88296 7.61189L4.27879 8.16111C4.31331 8.0734 4.34938 7.98646 4.38697 7.90033L3.0122 7.30032ZM8.1119 2.38295C8.00769 2.42396 7.90441 2.46679 7.80209 2.51142L8.40181 3.88632C8.48746 3.84896 8.57391 3.8131 8.66112 3.77879L8.1119 2.38295ZM6.91778 6.4163C7.18704 6.14704 7.36995 5.82646 7.50676 5.53968C7.63886 5.26277 7.76048 4.94266 7.85653 4.71112C8.08746 4.15448 8.24032 3.95676 8.40181 3.88632L7.80209 2.51142C7.01946 2.8528 6.67924 3.63446 6.47103 4.13633C6.34752 4.43405 6.26306 4.66297 6.15292 4.89383C6.0475 5.11481 5.95203 5.26073 5.85712 5.35564L6.91778 6.4163ZM4.38697 7.90033C4.45747 7.73878 4.65531 7.58593 5.21213 7.35506C5.44376 7.25902 5.76394 7.13744 6.04094 7.00534C6.32779 6.86854 6.64846 6.68562 6.91778 6.4163L5.85712 5.35564C5.76221 5.45055 5.61628 5.54602 5.39526 5.65142C5.16438 5.76153 4.93538 5.84598 4.63761 5.96944C4.13564 6.17758 3.35378 6.51768 3.0122 7.30032L4.38697 7.90033ZM5.01912 11C5.01912 10.619 4.92163 10.2627 4.81545 9.9631C4.71293 9.67378 4.57238 9.36127 4.47649 9.12959C4.2459 8.57247 4.21437 8.32484 4.27879 8.16111L2.88296 7.61189C2.57005 8.40714 2.88264 9.20099 3.09051 9.70323C3.21385 10.0012 3.31611 10.2229 3.40159 10.4641C3.48341 10.695 3.51912 10.8657 3.51912 11H5.01912ZM4.27879 13.8389C4.21436 13.6751 4.2459 13.4275 4.47648 12.8704C4.57237 12.6387 4.71292 12.3262 4.81545 12.0369C4.92163 11.7372 5.01912 11.381 5.01912 11H3.51912C3.51912 11.1342 3.48341 11.305 3.40159 11.5359C3.31611 11.7771 3.21385 11.9988 3.09051 12.2968C2.88263 12.799 2.57004 13.5928 2.88295 14.3881L4.27879 13.8389ZM6.91797 15.5818C6.64855 15.3124 6.32772 15.1295 6.04073 14.9926C5.7636 14.8605 5.44325 14.7389 5.21149 14.6429C4.65429 14.4119 4.45647 14.259 4.38604 14.0975L3.01109 14.6971C3.35259 15.4802 4.13496 15.8204 4.63715 16.0286C4.93508 16.1521 5.16422 16.2365 5.39524 16.3467C5.6164 16.4521 5.76239 16.5476 5.85731 16.6425L6.91797 15.5818ZM8.40226 18.1139C8.24075 18.0434 8.08787 17.8456 7.85693 17.2884C7.76087 17.0566 7.63929 16.7362 7.50717 16.4591C7.37035 16.1721 7.18739 15.8513 6.91797 15.5818L5.85731 16.6425C5.95223 16.7374 6.04772 16.8834 6.15315 17.1046C6.26328 17.3356 6.34774 17.5647 6.47122 17.8627C6.67936 18.3649 7.01953 19.1473 7.80263 19.4888L8.40226 18.1139ZM16.0852 15.582C15.8159 15.8513 15.633 16.1719 15.4962 16.4587C15.3641 16.7356 15.2426 17.0557 15.1465 17.2873C14.9157 17.8439 14.7629 18.0417 14.6013 18.1123L15.2016 19.4869C15.984 19.1453 16.324 18.3637 16.5321 17.8618C16.6556 17.5641 16.74 17.3352 16.8501 17.1044C16.9555 16.8835 17.0509 16.7376 17.1458 16.6427L16.0852 15.582ZM18.6137 14.0982C18.5433 14.2596 18.3456 14.4125 17.7894 14.6434C17.558 14.7395 17.2381 14.8611 16.9613 14.9932C16.6747 15.13 16.3543 15.3129 16.0852 15.582L17.1458 16.6427C17.2407 16.5478 17.3866 16.4523 17.6075 16.3469C17.8382 16.2368 18.067 16.1523 18.3646 16.0288C18.8662 15.8205 19.6473 15.4802 19.9886 14.6979L18.6137 14.0982ZM17.9809 11C17.9809 11.381 18.0784 11.7372 18.1846 12.0369C18.2871 12.3262 18.4276 12.6387 18.5235 12.8704C18.7541 13.4275 18.7856 13.6751 18.7212 13.8389L20.117 14.3881C20.43 13.5928 20.1174 12.799 19.9095 12.2968C19.7862 11.9988 19.6839 11.7771 19.5984 11.5359C19.5166 11.305 19.4809 11.1342 19.4809 11H17.9809ZM16.0854 6.41611C16.3544 6.68516 16.6746 6.868 16.9611 7.0048C17.2377 7.13687 17.5575 7.2585 17.7888 7.35454C18.3446 7.5854 18.5423 7.73819 18.6128 7.89972L19.9875 7.29959C19.6462 6.51771 18.8655 6.17751 18.3641 5.96926C18.0667 5.84574 17.8381 5.76129 17.6075 5.65118C17.3867 5.54579 17.2409 5.45035 17.146 5.35545L16.0854 6.41611ZM11.5 17.4809C11.119 17.4809 10.7628 17.5784 10.4631 17.6846C10.1738 17.7871 9.86128 17.9276 9.6296 18.0235C9.07248 18.2541 8.82486 18.2856 8.66112 18.2212L8.1119 19.617C8.90716 19.93 9.701 19.6174 10.2032 19.4095C10.5012 19.2862 10.7229 19.1839 10.9641 19.0984C11.195 19.0166 11.3658 18.9809 11.5 18.9809V17.4809ZM14.6018 3.88788C14.7633 3.95845 14.9161 4.1562 15.1469 4.71225C15.243 4.94358 15.3646 5.26342 15.4966 5.54011C15.6334 5.82669 15.8163 6.14701 16.0854 6.41611L17.146 5.35545C17.0511 5.26056 16.9557 5.11474 16.8503 4.89398C16.7402 4.66334 16.6558 4.43465 16.5323 4.13719C16.3242 3.63567 15.9841 2.85481 15.2022 2.51329L14.6018 3.88788ZM11.5 4.51912C11.881 4.51912 12.2373 4.42163 12.5369 4.31544C12.8262 4.21292 13.1387 4.07237 13.3704 3.97648C13.9275 3.7459 14.1752 3.71437 14.3389 3.77879L14.8881 2.38296C14.0929 2.07004 13.299 2.38263 12.7968 2.5905C12.4988 2.71384 12.2771 2.8161 12.0359 2.90159C11.805 2.98341 11.6343 3.01912 11.5 3.01912V4.51912ZM18.7212 8.16112C18.7856 8.32485 18.7541 8.57247 18.5235 9.1296C18.4276 9.36128 18.2871 9.67379 18.1846 9.9631C18.0784 10.2628 17.9809 10.619 17.9809 11H19.4809C19.4809 10.8658 19.5166 10.695 19.5984 10.4641C19.6839 10.2229 19.7862 10.0012 19.9095 9.70324C20.1174 9.201 20.43 8.40715 20.1171 7.6119L18.7212 8.16112ZM14.3389 18.2212C14.1751 18.2856 13.9275 18.2541 13.3704 18.0235C13.1387 17.9276 12.8262 17.7871 12.5369 17.6846C12.2372 17.5784 11.881 17.4809 11.5 17.4809V18.9809C11.6343 18.9809 11.805 19.0166 12.0359 19.0984C12.2771 19.1839 12.4988 19.2862 12.7968 19.4095C13.299 19.6174 14.0928 19.93 14.8881 19.617L14.3389 18.2212ZM11.5 3.01912C11.3658 3.01912 11.195 2.98341 10.9641 2.90159C10.7229 2.8161 10.5012 2.71384 10.2032 2.5905C9.701 2.38263 8.90715 2.07004 8.1119 2.38295L8.66112 3.77879C8.82485 3.71436 9.07248 3.7459 9.6296 3.97648C9.86128 4.07237 10.1738 4.21292 10.4631 4.31544C10.7628 4.42163 11.119 4.51912 11.5 4.51912V3.01912Z" fill="black"/>
<circle cx="9.62891" cy="9.12805" r="0.673355" transform="rotate(45 9.62891 9.12805)" fill="black"/>
<circle cx="13.3711" cy="12.8732" r="0.673355" transform="rotate(45 13.3711 12.8732)" fill="black"/>
<path fill-rule="evenodd" clip-rule="evenodd" d="M13.8574 8.64553C14.1066 8.89469 14.1066 9.29867 13.8574 9.54783L10.0484 13.3569C9.79921 13.6061 9.39524 13.6061 9.14608 13.3569C8.89692 13.1077 8.89692 12.7038 9.14608 12.4546L12.9552 8.64553C13.2043 8.39637 13.6083 8.39637 13.8574 8.64553Z" fill="black"/>
</svg>
